<?xml version="1.0" encoding="utf-8"?>
<!-- Generator: Adobe Illustrator 19.0.0, SVG Export Plug-In . SVG Version: 6.00 Build 0)  -->
<svg version="1.1" xmlns="http://www.w3.org/2000/svg" xmlns:xlink="http://www.w3.org/1999/xlink" x="0px" y="0px"
	 viewBox="0 0 595.3 841.9" style="enable-background:new 0 0 595.3 841.9;" xml:space="preserve">
<style type="text/css">
	.st0{fill:#936037;stroke:#000000;stroke-width:2;stroke-miterlimit:10;}
	.st1{fill:#EFC3AF;stroke:#000000;stroke-width:2;stroke-miterlimit:10;}
	.st2{fill:none;stroke:#000000;stroke-width:2;stroke-miterlimit:10;}
	.st3{fill:#F39200;stroke:#000000;stroke-width:2;stroke-miterlimit:10;}
	.st4{fill:#E6007E;stroke:#000000;stroke-width:2;stroke-miterlimit:10;}
	.st5{fill:#575756;stroke:#000000;stroke-width:2;stroke-miterlimit:10;}
	.st6{fill:#FFFFFF;stroke:#000000;stroke-miterlimit:10;}
	.st7{fill:#A48A7B;stroke:#000000;stroke-width:2;stroke-miterlimit:10;}
	.st8{fill:#634E42;stroke:#000000;stroke-width:2;stroke-miterlimit:10;}
	.st9{fill:#EDEDED;stroke:#000000;stroke-width:2;stroke-miterlimit:10;}
	.st10{stroke:#000000;stroke-width:2;stroke-miterlimit:10;}
</style>
<g id="Cheveux">
	<path class="st0" d="M258.3,359.1l-1.3,47.2l-12-1.5c0,0-2.5,17,8.5,18.8c0,0-1.8,19.8,9.1,21.4l7.9,8.3c0,0,3.5,2.4,6.6,3.1
		c3,0.7,6.1,0.7,6.1,0.7h30.6l36.5-7.6c0,0,14.8-5.1,3.3-24.4c0,0,9.5-15.3,5.8-19.8l-8.3,4.6l-15.6-68.3L258.3,359.1"/>
</g>
<g id="Calque_2">
	<ellipse class="st1" cx="335" cy="469.4" rx="8.8" ry="8.2"/>
	<path class="st2" d="M296,431.3c0,0-0.3,12.4,10.2,12.1c10.5-0.3,7-14.2,7-14.2"/>
	<path class="st2" d="M322.8,427.9"/>
	<line class="st2" x1="322.8" y1="460.7" x2="323.6" y2="457.5"/>
	<path class="st2" d="M319.3,460.7"/>
	<path class="st2" d="M317.7,429.1"/>
	<polygon class="st3" points="324.4,537.8 346.3,537.8 334.1,531.2 335.4,507 317.9,513 	"/>
	<polygon class="st4" points="320.4,512 311.6,490.1 329.2,487.9 332.5,508 	"/>
	<polygon class="st3" points="294.2,537.4 269.5,537.4 283,529.7 283.1,511.3 298,511.6 	"/>
	<polygon class="st4" points="297.4,511.7 303.1,491.1 286.4,493.2 284.3,511.7 	"/>
	<polygon class="st5" points="225.4,399.2 235.8,397.1 238.2,407.3 227.9,410.3 	"/>
	<path class="st2" d="M205.4,358.3"/>
	<path class="st5" d="M235.2,396.8c7.2-0.6,13.3-8.7,13.3-8.7L237,349.8l7.6,34.1c-2.7,3.8-12,7.5-11.5,7.2s-11.9-38.2-12.3-38.2
		c-0.3,0,7.6,39.3,7.6,39.3s-7.8,1.2-9.7,1.1c-1.8-0.1-12.3-34.3-12.3-34.3l6.5,39.7C213,398.6,225,400.6,235.2,396.8z"/>
	<line class="st2" x1="228.4" y1="392.1" x2="233.7" y2="390.8"/>
	<path class="st6" d="M239.5,465.4"/>
	<polygon class="st7" points="239.5,465.4 251,535 256.3,535 245.3,464.7 	"/>
	<path class="st1" d="M262.7,399.8c0,0,0.7,28,32.8,29.4c32,1.4,43.6-28.1,43.6-28.1s0.5-8.7-1.9-13.5c4,2.2,5.2,1.9,5.2,1.9
		s-6.8-5.3-9.6-10.7c5.1,2.7,9.6-0.3,9.6-0.3s-22.2,2.9-30.8-22.3c-5.3,23.2-33,31.3-44.4,24c1.1,5.5,1.8,9.8-6.9,22.7
		C263.9,399.1,262.7,399.8,262.7,399.8z"/>
	<polygon class="st7" points="229.6,410.3 237.5,455.8 243.9,455.8 235.6,408.1 	"/>
	<ellipse class="st1" cx="241.6" cy="458.2" rx="7.6" ry="7.4"/>
	<polygon class="st3" points="284.3,462.8 305,460.7 329.3,456.3 342.8,486.9 277.3,494.8 	"/>
	<polygon class="st4" points="247.1,453.2 265.6,442.7 284.3,433.9 327.1,427.1 334.4,432.3 348.6,448 340.3,462.4 334.4,460.7 
		336.8,447.1 327.5,442.9 329.6,455.8 305.6,460.7 284.3,462.8 283.5,450.8 249.7,459.5 	"/>
	<ellipse class="st8" cx="291.5" cy="469.1" rx="3.5" ry="3.4"/>
	<ellipse class="st8" cx="321.2" cy="464.7" rx="3.5" ry="3.4"/>
	<polyline class="st5" points="316.5,429.1 319.3,460.7 322.8,460.7 321.2,428.5 316.5,429.1 	"/>
	<polyline class="st5" points="286.8,434.1 289.6,465.7 293.1,465.7 291.5,433.5 286.8,434.1 	"/>
</g>
<g id="Yeux_bouche">
	<path class="st9" d="M275.3,407.7L327,401c0,0,3.2,15.8-22,20.5C279.8,426.2,275.3,407.7,275.3,407.7z"/>
	<circle class="st10" cx="277" cy="395.3" r="2.7"/>
	<circle class="st10" cx="325.5" cy="390.7" r="2.7"/>
</g>
<g id="Chapeau">
	<polygon class="st3" points="262,314.7 308.7,305 311.7,319 317,327 362.7,335.3 241,363 267,341 265,330 	"/>
	<polygon class="st4" points="265.1,330.6 312.1,319.6 317.9,328.4 266.9,340.7 	"/>
</g>
</svg>
