<?xml version="1.0" encoding="utf-8"?>
<!-- Generator: Adobe Illustrator 15.1.0, SVG Export Plug-In . SVG Version: 6.00 Build 0)  -->
<!DOCTYPE svg PUBLIC "-//W3C//DTD SVG 1.1//EN" "http://www.w3.org/Graphics/SVG/1.1/DTD/svg11.dtd">
<svg version="1.1" xmlns="http://www.w3.org/2000/svg" xmlns:xlink="http://www.w3.org/1999/xlink" x="0px" y="0px"
	 width="595.28px" height="841.89px" viewBox="0 0 595.28 841.89" enable-background="new 0 0 595.28 841.89" xml:space="preserve">
<g id="Calque_2">
	<path fill="none" stroke="#000000" stroke-width="2" stroke-miterlimit="10" d="M332.822,378.958c0,0,1.276,3.893,3.801,6.668
		c1.734,1.907,4.119,3.09,7.377,4.04"/>
	<path fill="none" stroke="#000000" stroke-width="2" stroke-miterlimit="10" d="M336.623,385.627c0,0,10.377,36.374-31.623,42.707
		s-42.423-29.521-42.423-29.521"/>
	<path fill="none" stroke="#000000" stroke-width="2" stroke-miterlimit="10" d="M258.333,402.667
		c1.648-1.602,3.108-2.325,4.244-3.854c6.9-9.294,5.09-17.646,5.09-17.646s5.667,2.833,13,2.833
		c9-2.333,27.667-11.333,30.667-28.333c0,0,6.121,19.372,21.488,23.292c3.026,0.771,6.24,0.583,10.024-0.075"/>
	<path fill="none" stroke="#000000" stroke-width="2" stroke-miterlimit="10" d="M295.993,431.275c0,0-0.326,12.393,10.174,12.059
		s7.009-14.233,7.009-14.233"/>
	<polyline fill="none" stroke="#000000" stroke-width="2" stroke-miterlimit="10" points="322.795,460.667 323.564,457.459 
		322.795,427.883 	"/>
	
		<line fill="none" stroke="#000000" stroke-width="2" stroke-miterlimit="10" x1="317.667" y1="429.101" x2="319.334" y2="460.667"/>
	<line fill="none" stroke="#000000" stroke-width="2" stroke-miterlimit="10" x1="292.667" y1="431.696" x2="292.667" y2="465"/>
	<line fill="none" stroke="#000000" stroke-width="2" stroke-miterlimit="10" x1="286.968" y1="432.418" x2="289" y2="466.22"/>
	<line fill="none" stroke="#000000" stroke-width="2" stroke-miterlimit="10" x1="284.333" y1="463.334" x2="287.984" y2="462"/>
	<path fill="none" stroke="#000000" stroke-width="2" stroke-miterlimit="10" d="M292.667,462c0,0,18.666-0.666,25.833-4.666"/>
	<path fill="none" stroke="#000000" stroke-width="2" stroke-miterlimit="10" d="M323.564,457.459
		c-1.146,0.479,6.103-2.125,6.103-2.125l-2.667-14l10.791,3.55L333,459.667l5.5,2.333l10.75-12.682l-21.121-21.436l-41.161,4.256
		L248.5,452.63l1.5,7.037l33.718-10.349l0.032,15.349L277,494.75l64.25-8l-2.75-9.416l-8.833-22"/>
	<path fill="none" stroke="#000000" stroke-width="2" stroke-miterlimit="10" d="M329.096,452.334c-0.513,1.333,6.281,0,6.281,0"/>
	<ellipse fill="none" stroke="#000000" stroke-width="2" stroke-miterlimit="10" cx="291.5" cy="468.089" rx="3.5" ry="3.421"/>
	<ellipse fill="none" stroke="#000000" stroke-width="2" stroke-miterlimit="10" cx="321.167" cy="463.667" rx="3.5" ry="3.421"/>
	<path fill="none" stroke="#000000" stroke-width="2" stroke-miterlimit="10" d="M271.62,453.634c0,0,5.004,4.097,12.099,3.7"/>
	<ellipse fill="none" stroke="#000000" stroke-width="2" stroke-miterlimit="10" cx="241.556" cy="458.231" rx="7.597" ry="7.425"/>
	<polygon fill="none" stroke="#000000" stroke-width="2" stroke-miterlimit="10" points="324.417,537.75 346.333,537.75 
		334.084,531.167 335.375,507 317,513.167 	"/>
	
		<line fill="none" stroke="#000000" stroke-width="2" stroke-miterlimit="10" x1="311.555" y1="490.103" x2="320.423" y2="512.019"/>
	<line fill="none" stroke="#000000" stroke-width="2" stroke-miterlimit="10" x1="329.181" y1="487.944" x2="332.515" y2="507.96"/>
	<polygon fill="none" stroke="#000000" stroke-width="2" stroke-miterlimit="10" points="294.167,537.75 269.5,537.75 283,530.083 
		283.083,511.667 298,512.019 	"/>
	
		<line fill="none" stroke="#000000" stroke-width="2" stroke-miterlimit="10" x1="286.356" y1="493.188" x2="284.333" y2="511.667"/>
	<line fill="none" stroke="#000000" stroke-width="2" stroke-miterlimit="10" x1="303.09" y1="491.14" x2="297.4" y2="511.667"/>
	<polygon fill="none" stroke="#000000" stroke-width="2" stroke-miterlimit="10" points="225,398.75 235.208,396.75 
		237.875,407.355 227.625,410.375 	"/>
	
		<line fill="none" stroke="#000000" stroke-width="2" stroke-miterlimit="10" x1="237.875" y1="452.334" x2="229.438" y2="409.841"/>
	<line fill="none" stroke="#000000" stroke-width="2" stroke-miterlimit="10" x1="236.09" y1="407.881" x2="243.009" y2="450.942"/>
	<path fill="none" stroke="#000000" stroke-width="2" stroke-miterlimit="10" d="M205.375,358.25"/>
	<path fill="none" stroke="#000000" stroke-width="2" stroke-miterlimit="10" d="M235.208,396.75
		c7.167-0.583,13.292-8.667,13.292-8.667L237,349.75l7.619,34.083c-2.715,3.833-12.035,7.5-11.535,7.167
		s-11.917-38.167-12.25-38.167s7.583,39.25,7.583,39.25s-7.833,1.167-9.667,1.083s-12.25-34.29-12.25-34.29l6.5,39.707
		c0,0,2.917,1.25,12,0.167"/>
	
		<line fill="none" stroke="#000000" stroke-width="2" stroke-miterlimit="10" x1="228.417" y1="392.083" x2="233.657" y2="390.819"/>
	<path fill="none" stroke="#000000" stroke-width="2" stroke-miterlimit="10" d="M338.5,462c0,0,13.25,12,0,14.25"/>
	<path fill="#FFFFFF" stroke="#000000" stroke-miterlimit="10" d="M239.55,465.386"/>
	<polygon fill="#FFFFFF" stroke="#000000" stroke-width="2" stroke-miterlimit="10" points="239.55,465.386 251,535 256.333,535 
		245.333,464.667 	"/>
</g>
<g id="Cheveux">
	<path fill="none" stroke="#000000" stroke-width="2" stroke-miterlimit="10" d="M258.333,359.072L257,406.25l-12-1.5
		c0,0-2.5,17,8.5,18.75c0,0-1.846,19.768,9.077,21.384l21.756-12.466l42.795-4.535l22.121,21.436c0,0,15.75-5.068,4.25-24.318
		c0,0,9.5-15.25,5.75-19.75l-8.25,4.591l-15.623-68.288"/>
</g>
<g id="Yeux_bouche">
	<path fill="none" stroke="#000000" stroke-width="2" stroke-miterlimit="10" d="M275.334,407.717L327,401
		c0,0,3.176,15.791-22,20.48S275.334,407.717,275.334,407.717z"/>
	<circle fill="none" stroke="#000000" stroke-width="2" stroke-miterlimit="10" cx="277" cy="395.334" r="2.667"/>
	<circle fill="none" stroke="#000000" stroke-width="2" stroke-miterlimit="10" cx="325.462" cy="390.667" r="2.667"/>
</g>
<g id="Chapeau">
	<polygon fill="none" stroke="#000000" stroke-width="2" stroke-miterlimit="10" points="262,314.681 308.667,305.014 
		311.667,319.014 317,327.014 362.667,335.347 241,363.014 267,341.014 265,330.014 	"/>
	<line fill="none" stroke="#000000" stroke-width="2" stroke-miterlimit="10" x1="265" y1="330.014" x2="311.667" y2="319.014"/>
	<line fill="none" stroke="#000000" stroke-width="2" stroke-miterlimit="10" x1="267" y1="341.014" x2="317" y2="327.014"/>
</g>
</svg>
