<?xml version="1.0" encoding="iso-8859-1"?>
<!-- Generator: Adobe Illustrator 19.0.0, SVG Export Plug-In . SVG Version: 6.00 Build 0)  -->
<svg version="1.1" xmlns="http://www.w3.org/2000/svg" xmlns:xlink="http://www.w3.org/1999/xlink" x="0px" y="0px"
	 viewBox="0 0 595.28 841.89" style="enable-background:new 0 0 595.28 841.89;" xml:space="preserve">
<g id="Cheveux">
	<path style="fill:#936037;stroke:#000000;stroke-width:2;stroke-miterlimit:10;" d="M258.333,359.072L257,406.25l-12-1.5
		c0,0-2.5,17,8.5,18.75c0,0-1.846,19.768,9.077,21.384l7.86,8.304c0,0,3.521,2.396,6.563,3.063c3.046,0.667,6.125,0.688,6.125,0.688
		h30.608l36.517-7.563c0,0,14.75-5.125,3.25-24.375c0,0,9.5-15.25,5.75-19.75l-8.25,4.591l-15.623-68.288L258.333,359.072"/>
</g>
<g id="Calque_2">
	
		<ellipse style="fill:#EFC3AF;stroke:#000000;stroke-width:2;stroke-miterlimit:10;" cx="335.004" cy="469.443" rx="8.813" ry="8.198"/>
	<path style="fill:none;stroke:#000000;stroke-width:2;stroke-miterlimit:10;" d="M295.993,431.275c0,0-0.326,12.393,10.174,12.059
		c10.5-0.334,7.009-14.233,7.009-14.233"/>
	<path style="fill:none;stroke:#000000;stroke-width:2;stroke-miterlimit:10;" d="M322.795,427.883"/>
	
		<line style="fill:none;stroke:#000000;stroke-width:2;stroke-miterlimit:10;" x1="322.795" y1="460.667" x2="323.564" y2="457.459"/>
	<path style="fill:none;stroke:#000000;stroke-width:2;stroke-miterlimit:10;" d="M319.334,460.667"/>
	<path style="fill:none;stroke:#000000;stroke-width:2;stroke-miterlimit:10;" d="M317.667,429.101"/>
	<polygon style="fill:#F39200;stroke:#000000;stroke-width:2;stroke-miterlimit:10;" points="324.417,537.75 346.333,537.75 
		334.084,531.167 335.375,507 317.917,513.042 	"/>
	<polygon style="fill:#E6007E;stroke:#000000;stroke-width:2;stroke-miterlimit:10;" points="320.423,512.019 311.555,490.103 
		329.181,487.944 332.515,507.96 	"/>
	<polygon style="fill:#F39200;stroke:#000000;stroke-width:2;stroke-miterlimit:10;" points="294.176,537.37 269.51,537.37 
		283.01,529.703 283.093,511.287 298.01,511.638 	"/>
	<polygon style="fill:#E6007E;stroke:#000000;stroke-width:2;stroke-miterlimit:10;" points="297.4,511.667 303.09,491.14 
		286.356,493.189 284.333,511.667 	"/>
	<polygon style="fill:#575756;stroke:#000000;stroke-width:2;stroke-miterlimit:10;" points="225.414,399.207 235.771,397.055 
		238.177,407.317 227.927,410.337 	"/>
	<path style="fill:none;stroke:#000000;stroke-width:2;stroke-miterlimit:10;" d="M205.375,358.25"/>
	<path style="fill:#575756;stroke:#000000;stroke-width:2;stroke-miterlimit:10;" d="M235.208,396.75
		c7.167-0.583,13.292-8.667,13.292-8.667L237,349.75l7.619,34.083c-2.715,3.833-12.035,7.5-11.535,7.167
		s-11.917-38.167-12.25-38.167c-0.333,0,7.583,39.25,7.583,39.25s-7.833,1.167-9.666,1.083c-1.834-0.083-12.25-34.289-12.25-34.289
		l6.5,39.706C213,398.583,225,400.583,235.208,396.75z"/>
	
		<line style="fill:none;stroke:#000000;stroke-width:2;stroke-miterlimit:10;" x1="228.416" y1="392.083" x2="233.657" y2="390.819"/>
	<path style="fill:#FFFFFF;stroke:#000000;stroke-miterlimit:10;" d="M239.55,465.386"/>
	<polygon style="fill:#A48A7B;stroke:#000000;stroke-width:2;stroke-miterlimit:10;" points="239.55,465.386 251,535 256.333,535 
		245.333,464.667 	"/>
	<path style="fill:#EFC3AF;stroke:#000000;stroke-width:2;stroke-miterlimit:10;" d="M262.667,399.75c0,0,0.708,27.951,32.75,29.351
		C327.458,430.5,339,401,339,401s0.458-8.709-1.917-13.5c4,2.208,5.167,1.917,5.167,1.917s-6.792-5.25-9.583-10.667
		c5.083,2.667,9.583-0.333,9.583-0.333s-22.172,2.914-30.833-22.25c-5.333,23.167-33.042,31.292-44.417,24
		c1.125,5.542,1.75,9.792-6.917,22.667C263.917,399.105,262.667,399.75,262.667,399.75z"/>
	<polygon style="fill:#A48A7B;stroke:#000000;stroke-width:2;stroke-miterlimit:10;" points="229.583,410.337 237.542,455.75 
		243.938,455.75 235.614,408.072 	"/>
	
		<ellipse style="fill:#EFC3AF;stroke:#000000;stroke-width:2;stroke-miterlimit:10;" cx="241.556" cy="458.231" rx="7.597" ry="7.425"/>
	<polygon style="fill:#F39200;stroke:#000000;stroke-width:2;stroke-miterlimit:10;" points="284.333,462.813 305,460.667 
		329.25,456.25 342.75,486.938 277.25,494.75 	"/>
	<polygon style="fill:#E6007E;stroke:#000000;stroke-width:2;stroke-miterlimit:10;" points="247.092,453.154 265.583,442.667 
		284.25,433.917 327.129,427.083 334.417,432.333 348.583,448.044 340.292,462.375 334.417,460.667 336.792,447.083 327.5,442.875 
		329.583,455.75 305.625,460.667 284.333,462.813 283.458,450.804 249.667,459.5 	"/>
	<ellipse style="fill:#634E42;stroke:#000000;stroke-width:2;stroke-miterlimit:10;" cx="291.5" cy="469.089" rx="3.5" ry="3.421"/>
	
		<ellipse style="fill:#634E42;stroke:#000000;stroke-width:2;stroke-miterlimit:10;" cx="321.168" cy="464.667" rx="3.5" ry="3.421"/>
	<polyline style="fill:#575756;stroke:#000000;stroke-width:2;stroke-miterlimit:10;" points="316.511,429.084 319.334,460.667 
		322.795,460.667 321.168,428.515 316.511,429.084 	"/>
	<polyline style="fill:#575756;stroke:#000000;stroke-width:2;stroke-miterlimit:10;" points="286.806,434.084 289.629,465.667 
		293.089,465.667 291.462,433.515 286.806,434.084 	"/>
</g>
<g id="Yeux_bouche">
	<path style="fill:#EDEDED;stroke:#000000;stroke-width:2;stroke-miterlimit:10;" d="M275.334,407.717L327,401
		c0,0,3.176,15.79-22,20.48C279.824,426.17,275.334,407.717,275.334,407.717z"/>
	<circle style="stroke:#000000;stroke-width:2;stroke-miterlimit:10;" cx="277" cy="395.334" r="2.667"/>
	<circle style="stroke:#000000;stroke-width:2;stroke-miterlimit:10;" cx="325.462" cy="390.668" r="2.666"/>
</g>
<g id="Chapeau">
	<polygon style="fill:#F39200;stroke:#000000;stroke-width:2;stroke-miterlimit:10;" points="262,314.681 308.667,305.014 
		311.667,319.014 317,327.014 362.667,335.347 241,363.014 267,341.014 265,330.014 	"/>
	<polygon style="fill:#E6007E;stroke:#000000;stroke-width:2;stroke-miterlimit:10;" points="265.104,330.583 312.09,319.648 
		317.938,328.438 266.938,340.67 	"/>
</g>
</svg>
